# xmcd CD database file
#
# Track frame offsets:
#	150
#	16088
#	31308
#	51387
#	70480
#	86481
#	99890
#	120551
#	135548
#	151298
#	166658
#	182774
#
# Disc length: 2691 seconds
#
# Revision: 0
# Processed by: cddbd v1.5.1PL0 Copyright (c) Steve Scherf et al.
# Submitted via: CDex 1.51
#
DISCID=8e0a810c
DTITLE=Renee Olstead - Renee Olstead
DYEAR=2004
DGENRE=Jazz
TTITLE0=Renee Olstead - Taking A Chance On Love (Album Version)
TTITLE1=Renee Olstead - Is You Is Or Is You Ain't My Baby (Album Version)
TTITLE2=Renee Olstead (Featuring Chris Botti) - Someone To Watch Over Me (Album Version)
TTITLE3=Renee Olstead - Breaking Up Is Hard To Do (Album Version)
TTITLE4=Renee Olstead - A Love That Will Last (Album Version)
TTITLE5=Renee Olstead - Meet Me, Midnight (Album Version)
TTITLE6=Renee Olstead (Featuring Chris Botti) - Sunday Kind Of Love (Album Version)
TTITLE7=Renee Olstead (Featuring Carol Welsman) - On A Slow Boat To China (Album Version)
TTITLE8=Renee Olstead - What A Difference A Day Makes (Album Version)
TTITLE9=Renee Olstead - Midnight At The Oasis (Album Version)
TTITLE10=Renee Olstead - Sentimental Journey (Album Version)
TTITLE11=Renee Olstead - Summertime (Album Version)
EXTD=YEAR: 2004
EXTT0=
EXTT1=
EXTT2=
EXTT3=
EXTT4=
EXTT5=
EXTT6=
EXTT7=
EXTT8=
EXTT9=
EXTT10=
EXTT11=
PLAYORDER=
